<svg width="544" height="258" viewBox="0 0 544 258" fill="none" xmlns="http://www.w3.org/2000/svg">
<path d="M251.358 89.5887C251.358 109.716 244.942 126.196 232.111 139.027C219.531 151.859 201.542 159.91 178.143 163.18L250.226 244.32V253H185.314L108.326 164.313H56.6228V253H0.0138225V5.43002H157.009C186.446 5.43002 209.467 12.6005 226.072 26.9414C242.929 41.0308 251.358 60.5294 251.358 85.4374V89.5887ZM193.617 84.3052C193.617 74.9962 190.346 67.9515 183.804 63.1712C177.514 58.1393 168.08 55.6233 155.5 55.6233H56.6228V117.516H155.5C167.828 117.516 177.263 115.126 183.804 110.345C190.346 105.313 193.617 98.0172 193.617 88.4565V84.3052ZM421.058 257.529C380.299 257.529 349.353 250.232 328.219 235.64C307.085 221.047 296.518 199.662 296.518 171.483V167.709H352.372V171.483C352.372 183.56 358.411 192.743 370.487 199.033C382.564 205.323 400.175 208.468 423.322 208.468C443.953 208.468 459.552 206.329 470.119 202.052C480.938 197.523 486.347 190.982 486.347 182.427V179.786C486.347 172.993 483.328 167.835 477.29 164.313C471.251 160.539 460.558 157.52 445.211 155.255L382.186 146.198C327.842 138.147 300.669 115.755 300.669 79.0217V75.2478C300.669 51.8494 310.859 33.6087 331.238 20.5257C351.869 7.44277 380.677 0.901293 417.661 0.901293C456.91 0.901293 486.85 7.94597 507.481 22.0353C528.112 36.1247 538.427 56.5039 538.427 83.173V86.5696H482.573V83.173C482.573 61.0326 460.936 49.9624 417.661 49.9624C398.289 49.9624 383.444 51.9752 373.129 56.0007C363.065 60.0262 358.033 65.9387 358.033 73.7382V76.7573C358.033 82.544 360.801 87.0728 366.336 90.3435C372.123 93.6142 381.935 96.256 395.773 98.2688L459.175 107.326C488.108 111.603 509.368 119.403 522.954 130.725C536.792 141.795 543.711 157.268 543.711 177.144V180.918C543.711 205.071 533.018 223.941 511.632 237.527C490.247 250.861 460.055 257.529 421.058 257.529Z" fill="#F8F8F8"/>
</svg>
