<svg width="17" height="20" viewBox="0 0 17 20" fill="none" xmlns="http://www.w3.org/2000/svg">
<path d="M8.57763 0V6C8.57763 6.53043 8.78835 7.03914 9.16342 7.41421C9.53849 7.78928 10.0472 8 10.5776 8H16.5776V18C16.5776 18.5304 16.3669 19.0391 15.9918 19.4142C15.6168 19.7893 15.1081 20 14.5776 20H2.57764C2.0472 20 1.5385 19.7893 1.16342 19.4142C0.78835 19.0391 0.577637 18.5304 0.577637 18V2C0.577637 1.46957 0.78835 0.960859 1.16342 0.585786C1.5385 0.210714 2.0472 0 2.57764 0H8.57763ZM10.0776 0.5V6C10.0776 6.13261 10.1303 6.25978 10.2241 6.35355C10.3178 6.44732 10.445 6.5 10.5776 6.5H16.0776L10.0776 0.5Z" fill="white"/>
</svg>
