<svg width="20" height="20" viewBox="0 0 20 20" fill="none" xmlns="http://www.w3.org/2000/svg">
<path d="M18.8164 8.00033C18.7954 7.90597 18.7544 7.81721 18.6962 7.74006C18.638 7.66291 18.5638 7.59917 18.4789 7.55314L16.4707 6.43939C16.3631 6.22111 16.2419 6.00976 16.1079 5.80658L16.1501 3.51157C16.1509 3.41531 16.1318 3.31993 16.094 3.23137C16.0563 3.14282 16.0007 3.06299 15.9307 2.99689C14.9309 2.09033 13.7484 1.40847 12.4629 0.997199C12.3706 0.968415 12.2732 0.959547 12.1772 0.971183C12.0812 0.982819 11.9888 1.01469 11.906 1.0647L9.9401 2.24595C9.69541 2.23751 9.45916 2.23751 9.21448 2.24595L7.24854 1.0647C7.16577 1.01469 7.07334 0.982819 6.97734 0.971183C6.88135 0.959547 6.78398 0.968415 6.69166 0.997199C5.40449 1.40879 4.22153 2.09381 3.22385 3.00532C3.15326 3.06916 3.09716 3.14736 3.05932 3.23469C3.02148 3.32201 3.00278 3.41642 3.00447 3.51157L3.04666 5.80658C2.91166 6.00908 2.79354 6.22001 2.67541 6.43939L0.667286 7.55314C0.58352 7.59965 0.510765 7.66367 0.453979 7.74084C0.397193 7.81801 0.357711 7.90652 0.338224 8.00033C0.0513213 9.31802 0.0513213 10.682 0.338224 11.9997C0.359182 12.0941 0.40016 12.1828 0.458387 12.26C0.516614 12.3371 0.59073 12.4009 0.675724 12.4469L2.68385 13.5606C2.7915 13.7789 2.91267 13.9903 3.04666 14.1935L3.00447 16.4885C3.0037 16.5847 3.02279 16.6801 3.06053 16.7687C3.09828 16.8572 3.15387 16.937 3.22385 17.0031C4.22372 17.9097 5.40619 18.5916 6.69166 19.0028C6.78398 19.0316 6.88135 19.0405 6.97734 19.0288C7.07334 19.0172 7.16577 18.9853 7.24854 18.9353L9.21448 17.7541H9.9401L11.9145 18.9353C12.0171 19.0028 12.1376 19.0381 12.2604 19.0366C12.329 19.0336 12.397 19.0223 12.4629 19.0028C13.7501 18.5912 14.9331 17.9062 15.9307 16.9947C16.0013 16.9309 16.0574 16.8527 16.0953 16.7653C16.1331 16.678 16.1518 16.5836 16.1501 16.4885L16.1079 14.1935C16.2429 13.991 16.361 13.78 16.4792 13.5606L18.4873 12.4469C18.5711 12.4004 18.6438 12.3364 18.7006 12.2592C18.7574 12.182 18.7969 12.0935 18.8164 11.9997C19.1033 10.682 19.1033 9.31802 18.8164 8.00033V8.00033ZM9.57729 13.7125C8.84303 13.7125 8.12525 13.4948 7.51473 13.0868C6.90422 12.6789 6.42838 12.0991 6.14739 11.4207C5.86639 10.7424 5.79287 9.9959 5.93612 9.27574C6.07937 8.55559 6.43295 7.89408 6.95215 7.37488C7.47136 6.85568 8.13286 6.5021 8.85302 6.35885C9.57317 6.2156 10.3196 6.28912 10.998 6.57011C11.6764 6.8511 12.2562 7.32694 12.6641 7.93746C13.0721 8.54798 13.2898 9.26575 13.2898 10C13.2898 10.9846 12.8987 11.9289 12.2024 12.6251C11.5062 13.3214 10.5619 13.7125 9.57729 13.7125Z" fill="white"/>
</svg>
