<svg width="22" height="22" viewBox="0 0 22 22" fill="none" xmlns="http://www.w3.org/2000/svg">
<path d="M21.9818 1.85434V5.52101C21.9818 5.76413 21.8852 5.99728 21.7133 6.16919C21.5414 6.3411 21.3083 6.43768 21.0651 6.43768C20.822 6.43768 20.5889 6.3411 20.417 6.16919C20.2451 5.99728 20.1485 5.76413 20.1485 5.52101V3.17159L15.2901 8.00426C15.1168 8.17082 14.885 8.26261 14.6446 8.25987C14.4042 8.25713 14.1745 8.16007 14.005 7.98961C13.8355 7.81914 13.7398 7.58892 13.7384 7.34853C13.737 7.10814 13.8301 6.87683 13.9976 6.70443L18.8743 1.85434H16.4818C16.2387 1.85434 16.0055 1.75777 15.8336 1.58586C15.6617 1.41395 15.5651 1.18079 15.5651 0.937678C15.5651 0.694563 15.6617 0.461405 15.8336 0.289496C16.0055 0.117588 16.2387 0.021011 16.4818 0.021011H20.1485C20.6347 0.021011 21.101 0.214165 21.4448 0.557982C21.7887 0.901799 21.9818 1.36811 21.9818 1.85434ZM21.1522 15.3651C21.6834 15.8978 21.9818 16.6194 21.9818 17.3717C21.9818 18.124 21.6834 18.8456 21.1522 19.3783L20.3162 20.3408C12.8078 27.5256 -5.46043 9.26285 1.61623 1.73243L2.66948 0.815761C3.20307 0.299468 3.91829 0.0137335 4.66074 0.0202507C5.40319 0.0267679 6.11329 0.325014 6.63773 0.850594C6.66523 0.879011 8.36381 3.08634 8.36381 3.08634C8.86768 3.61567 9.14824 4.31877 9.14722 5.04957C9.1462 5.78037 8.86366 6.48268 8.35831 7.01059L7.2959 8.34618C7.88334 9.77353 8.74704 11.0707 9.83736 12.1633C10.9277 13.2558 12.2232 14.1221 13.6493 14.7124L14.9922 13.6445C15.5201 13.1394 16.2222 12.8571 16.9528 12.856C17.6834 12.855 18.3863 13.1354 18.9156 13.639C18.9156 13.639 21.1238 15.3376 21.1522 15.3651ZM19.8918 16.6979C19.8918 16.6979 17.6982 15.0094 17.6698 14.9819C17.481 14.7947 17.2258 14.6896 16.9599 14.6896C16.6939 14.6896 16.4387 14.7947 16.2499 14.9819C16.2251 15.0058 14.3762 16.4798 14.3762 16.4798C14.2516 16.5789 14.1034 16.6439 13.946 16.6684C13.7886 16.6928 13.6276 16.6758 13.4788 16.6191C11.6301 15.9316 9.95091 14.8544 8.55526 13.4607C7.15961 12.0669 6.08014 10.3892 5.39015 8.54143C5.32979 8.3912 5.31029 8.22767 5.33363 8.06746C5.35698 7.90726 5.42234 7.75609 5.52306 7.62934C5.52306 7.62934 6.99615 5.78043 7.0209 5.75568C7.20814 5.56683 7.3132 5.31166 7.3132 5.04572C7.3132 4.77978 7.20814 4.52461 7.0209 4.33576C6.9934 4.30826 5.3049 2.11376 5.3049 2.11376C5.11334 1.94177 4.86325 1.84957 4.60589 1.85604C4.34853 1.86252 4.1034 1.96719 3.92073 2.14859L2.86748 3.06526C-2.30619 9.28209 13.5274 24.2384 18.9751 19.0904L19.8111 18.1279C20.0082 17.9471 20.127 17.6964 20.142 17.4293C20.1571 17.1622 20.0673 16.8998 19.8918 16.6979Z" fill="#B63A3A"/>
</svg>
