<svg width="19" height="20" viewBox="0 0 19 20" fill="none" xmlns="http://www.w3.org/2000/svg">
<path d="M18.5772 14.5C18.5772 14.88 18.3672 15.21 18.0472 15.38L10.1472 19.82C9.98715 19.94 9.78715 20 9.57715 20C9.36715 20 9.16715 19.94 9.00715 19.82L1.10715 15.38C0.946832 15.2958 0.812664 15.1692 0.719225 15.014C0.625786 14.8589 0.576649 14.6811 0.577152 14.5V5.5C0.577152 5.12 0.787152 4.79 1.10715 4.62L9.00715 0.18C9.16715 0.0600001 9.36715 0 9.57715 0C9.78715 0 9.98715 0.0600001 10.1472 0.18L18.0472 4.62C18.3672 4.79 18.5772 5.12 18.5772 5.5V14.5ZM2.57715 7V13H3.82715V11H4.57715C5.10759 11 5.61629 10.7893 5.99137 10.4142C6.36644 10.0391 6.57715 9.53043 6.57715 9C6.57715 8.46957 6.36644 7.96086 5.99137 7.58579C5.61629 7.21071 5.10759 7 4.57715 7H2.57715ZM3.82715 10V8H4.32715C4.59237 8 4.84672 8.10536 5.03426 8.29289C5.2218 8.48043 5.32715 8.73479 5.32715 9C5.32715 9.26522 5.2218 9.51957 5.03426 9.70711C4.84672 9.89464 4.59237 10 4.32715 10H3.82715ZM7.32715 7V13H8.57715V11H9.32715L9.98715 13H11.3072L10.5172 10.61C11.0072 10.25 11.3272 9.66 11.3272 9C11.3272 8.46957 11.1164 7.96086 10.7414 7.58579C10.3663 7.21071 9.85759 7 9.32715 7H7.32715ZM8.57715 10V8H9.07715C9.34237 8 9.59672 8.10536 9.78426 8.29289C9.9718 8.48043 10.0772 8.73479 10.0772 9C10.0772 9.26522 9.9718 9.51957 9.78426 9.70711C9.59672 9.89464 9.34237 10 9.07715 10H8.57715ZM14.5772 7C13.1972 7 12.0772 8.34 12.0772 10C12.0772 11.66 13.1972 13 14.5772 13C15.9572 13 17.0772 11.66 17.0772 10C17.0772 8.34 15.9572 7 14.5772 7ZM14.5772 8.25C15.3372 8.25 15.9572 9.03 15.9572 10C15.9572 10.97 15.3372 11.75 14.5772 11.75C13.8172 11.75 13.2072 10.97 13.2072 10C13.2072 9.03 13.8172 8.25 14.5772 8.25Z" fill="white"/>
</svg>
