<svg width="21" height="21" viewBox="0 0 21 21" fill="none" xmlns="http://www.w3.org/2000/svg">
<g clip-path="url(#clip0_109_48)">
<path fill-rule="evenodd" clip-rule="evenodd" d="M10.5772 0.515381C9.71465 0.515381 8.27341 0.843443 6.91716 1.20864C5.52965 1.58004 4.13091 2.01951 3.30841 2.28568C2.96452 2.39815 2.65964 2.60441 2.4288 2.88077C2.19796 3.15713 2.05051 3.49238 2.00341 3.848C1.25841 9.39039 2.98715 13.498 5.08465 16.2153C5.97413 17.3777 7.03469 18.4014 8.23091 19.2521C8.71341 19.59 9.1609 19.8488 9.5409 20.0258C9.89091 20.1892 10.2672 20.3229 10.5772 20.3229C10.8872 20.3229 11.2622 20.1892 11.6134 20.0258C12.0715 19.8053 12.5098 19.5464 12.9234 19.2521C14.1196 18.4014 15.1802 17.3777 16.0697 16.2153C18.1672 13.498 19.8959 9.39039 19.1509 3.848C19.1039 3.49221 18.9565 3.15676 18.7256 2.88019C18.4948 2.60362 18.1899 2.39713 17.8459 2.28444C16.6519 1.89672 15.4486 1.53761 14.2372 1.20741C12.8809 0.844681 11.4397 0.515381 10.5772 0.515381ZM13.2597 6.88598C13.377 6.76975 13.5362 6.70445 13.7022 6.70445C13.8681 6.70445 14.0273 6.76975 14.1447 6.88598C14.262 7.0022 14.3279 7.15984 14.3279 7.32422C14.3279 7.48859 14.262 7.64623 14.1447 7.76246L10.3947 11.4764C10.3366 11.534 10.2676 11.5797 10.1917 11.611C10.1158 11.6422 10.0344 11.6582 9.95216 11.6582C9.86995 11.6582 9.78854 11.6422 9.71261 11.611C9.63668 11.5797 9.56771 11.534 9.50965 11.4764L7.63465 9.61941C7.57654 9.56186 7.53045 9.49354 7.499 9.41835C7.46755 9.34315 7.45137 9.26256 7.45137 9.18117C7.45136 9.09978 7.46755 9.01919 7.499 8.944C7.53045 8.8688 7.57654 8.80048 7.63465 8.74293C7.69276 8.68538 7.76175 8.63973 7.83768 8.60858C7.9136 8.57744 7.99498 8.56141 8.07716 8.56141C8.15933 8.56141 8.24071 8.57744 8.31663 8.60858C8.39256 8.63973 8.46154 8.68538 8.51966 8.74293L9.95216 10.1629L13.2597 6.88598Z" fill="white"/>
</g>
<defs>
<clipPath id="clip0_109_48">
<rect width="20" height="19.8075" fill="white" transform="translate(0.577148 0.515381)"/>
</clipPath>
</defs>
</svg>
